<?xml version="1.0" encoding="utf-8"?>
<!-- Generator: Adobe Illustrator 18.1.1, SVG Export Plug-In . SVG Version: 6.00 Build 0)  -->
<svg version="1.1" id="レイヤー_1" xmlns="http://www.w3.org/2000/svg" xmlns:xlink="http://www.w3.org/1999/xlink" x="0px"
	 y="0px" viewBox="0 0 240 240" enable-background="new 0 0 240 240" xml:space="preserve">
<g>
	<path fill="#FFFFFF" d="M237.5,101.4V64.5c0,0-32-57.5-115-57.5C58.6,7,46.3,30.7,46.3,30.7v36.9c0,0,27.1-28.3,75.6-28.3
		C185.3,39.3,237.5,101.4,237.5,101.4z"/>
	<path fill="#FFFFFF" d="M78.3,213.9l38.1,23.2c0,0,46.9-14,82.6-53.3c42.9-47.4,34.1-75.2,34.1-75.2l-27.1-25
		c0,0,2.4,39.1-30.5,74.7C132.5,204.8,78.3,213.9,78.3,213.9z"/>
	<path fill="#FFFFFF" d="M39.3,29.7L2.6,55.1c0,0-2.3,67.7,14.8,96.7c32.8,55.3,53.5,55.9,53.5,55.9l35.7-14.6
		c0,0-36.7-7.5-55.9-52.1C25.5,82.9,39.3,29.7,39.3,29.7z"/>
	<path fill="#FFFFFF" d="M120.1,151.1v28.3c34.9-1.2,62.9-30,62.9-65.1c0-12.4-3.5-24.4-10.1-34.9L152,100.3
		c1.8,4.4,2.7,9.1,2.7,13.9C154.7,133.8,139.4,149.9,120.1,151.1z"/>
	<path fill="#FFFFFF" d="M63.1,79c-6.8,10.5-10.4,22.7-10.4,35.3c0,35.4,28.4,64.4,63.7,65.2v-28.3c-19.7-0.8-35.4-17-35.4-36.9
		c0-5,1-9.9,3-14.5L63.1,79z"/>
	<path fill="#FFFFFF" d="M117.9,77.4c13.6,0,26.1,7.5,32.5,19.4l20.5-20.5c-12.2-17.1-31.9-27.2-53-27.2c-20.8,0-40.4,10-52.6,26.8
		l20.4,20.4C92.1,84.7,104.5,77.4,117.9,77.4z"/>
</g>
</svg>
