<?xml version="1.0" encoding="utf-8"?>
<!-- Generator: Adobe Illustrator 18.1.1, SVG Export Plug-In . SVG Version: 6.00 Build 0)  -->
<svg version="1.1" id="レイヤー_1" xmlns="http://www.w3.org/2000/svg" xmlns:xlink="http://www.w3.org/1999/xlink" x="0px"
	 y="0px" viewBox="0 295 595.3 273.5" enable-background="new 0 295 595.3 273.5" xml:space="preserve">
<g>
	<text transform="matrix(1 0 0 1 21.9622 340.4514)" fill="#0F73B7" font-family="'RodinPro-L-83pv-RKSJ-H'" font-size="46.905">裏</text>
	<text transform="matrix(1 0 0 1 68.9346 340.4514)" fill="#0F73B7" font-family="'RodinPro-L-83pv-RKSJ-H'" font-size="46.905">方</text>
	
		<text transform="matrix(1 0 0 1 114.578 343.656)" fill="#0F73B7" font-family="'RodinPro-L-83pv-RKSJ-H'" font-size="30.5902" letter-spacing="-2">の</text>
	
		<text transform="matrix(1 0 0 1 141.018 335.7445)" fill="#0F73B7" font-family="'RodinPro-L-83pv-RKSJ-H'" font-size="40.787" letter-spacing="-10">プ</text>
	
		<text transform="matrix(1 0 0 1 170.2651 344.7551)" fill="#0F73B7" font-family="'RodinPro-L-83pv-RKSJ-H'" font-size="40.787" letter-spacing="-7">ラ</text>
	
		<text transform="matrix(1 0 0 1 202.3183 331.7561)" fill="#0F73B7" font-family="'RodinPro-L-83pv-RKSJ-H'" font-size="40.787" letter-spacing="-14">イ</text>
	<text transform="matrix(1 0 0 1 228.0206 340.4716)" fill="#0F73B7" font-family="'RodinPro-L-83pv-RKSJ-H'" font-size="40.787">ド</text>
	<line fill="none" stroke="#0F73B7" stroke-width="2.74" stroke-miterlimit="10" x1="23.9" y1="360.3" x2="326.6" y2="360.3"/>
</g>
<g enable-background="new    ">
	<path fill="#0F73B7" d="M35.5,393.8c-1.8,0-2.8-1.1-3.5-1.9v4.3c0,1,0.3,1.6,1.4,1.6h0.5v0.8H27v-0.8h0.5c0.7,0,1-0.4,1-1.6v-13.9
		c0-1.4-0.4-2.1-1.4-2.1h-0.5v-0.8l5.3-0.3v1.7c0.5-0.6,1.6-1.7,3.6-1.7c2.5,0,5.3,2.4,5.3,7.3C40.8,390.6,38.7,393.8,35.5,393.8z
		 M34.2,380.5c-0.3,0-1.7,0.1-2.3,2.3v6.7c0,0.9,1,2.8,2.4,2.8c1,0,2.4-1.2,2.4-5.7C36.7,384.3,36.3,380.5,34.2,380.5z"/>
	<path fill="#0F73B7" d="M51.5,383.6c-1.2,0-1.6-0.6-2.2-1.5c-0.1-0.1-0.2-0.3-0.3-0.3c-0.6,0-1.6,2.7-1.6,4.1v5.2
		c0,1,0.6,1.5,1.4,1.5h1.1v0.8h-7.6v-0.8h0.5c0.9,0,1.2-0.6,1.2-1.5v-8.7c0-2.3-0.8-2.3-1.9-2.3v-0.8l5.3-0.3v3.5
		c0.5-1.2,1.4-3.5,3.9-3.5c1.6,0,2.4,1.1,2.4,2.3C53.6,382.7,52.7,383.6,51.5,383.6z"/>
	<path fill="#0F73B7" d="M55,393.5v-0.8c0.5,0,1.7,0,1.7-1.5v-9.4c0-0.8-0.6-1.5-1.4-1.5h-0.4v-0.8l5.3-0.3v12.1
		c0,1.4,1.3,1.5,1.9,1.5v0.8H55z M58.4,375c-1.3,0-2.4-1-2.4-2.4c0-1.4,1.1-2.4,2.4-2.4c1.2,0,2.4,1,2.4,2.4
		C60.7,374,59.6,375,58.4,375z"/>
	<path fill="#0F73B7" d="M72.5,393.5l-0.4-1.4c-0.6,0.6-1.7,1.7-3.5,1.7c-3.7,0-5.1-4-5.1-7.3c0-4.9,2.8-7.4,5.2-7.4
		c1.9,0,3,1.4,3.4,2v-8c0-1.4-0.4-1.7-1.9-1.7v-0.8l5.4-0.3v20.4c0,1.9,0.8,1.9,1.7,1.9v0.8H72.5z M72.2,383.2
		c0-0.6-0.6-2.5-2.1-2.5c-2.4,0-2.5,4.1-2.5,5.8c0,2,0.3,5.7,2.5,5.7c0.8,0,1.7-0.5,2.2-1.8V383.2z"/>
	<path fill="#0F73B7" d="M82.9,386.5c0,0.6,0,3.3,1.4,4.7c0.6,0.6,1.4,1,2.2,1c1.8,0,3.1-1.6,3.6-2.2l0.5,0.6
		c-0.9,1.2-2.5,3.2-5.5,3.2c-3.2,0-6.2-2.5-6.2-7c0-4.2,2.5-7.8,6.3-7.8c1.7,0,3.3,0.8,4.5,2.5c1.2,1.8,1.3,3.4,1.4,4.8H82.9z
		 M85.3,380c-2.1,0-2.3,3.6-2.3,5.7h4.4C87.3,383,87.3,380,85.3,380z"/>
	<path fill="#0F73B7" d="M109.1,393.8c-3.1,0-6.1-3-6.1-7.4c0-4.3,3-7.3,6.1-7.3c3.1,0,6.1,3,6.1,7.3
		C115.2,390.8,112.2,393.8,109.1,393.8z M109.1,380c-1.9,0-1.9,5.3-1.9,6.5c0,1.2,0,6.5,1.9,6.5c1.9,0,1.9-5.2,1.9-6.5
		C111.1,385.3,111,380,109.1,380z"/>
	<path fill="#0F73B7" d="M125.9,374.8c-1.4,0-2.1-1.2-2.1-2c0-0.3,0-0.5,0.2-0.9c0.1-0.3,0.2-0.5,0.2-0.6c0-0.3-0.3-0.3-0.4-0.3
		c-1.1,0-1.2,1.5-1.2,2.4v5.7h3.5v0.8h-3.5V391c0,1.2,0.7,1.7,1.9,1.7h0.9v0.8h-8.5v-0.8h0.5c1,0,1.7-0.6,1.7-1.7v-10.8h-2.5v-0.8
		h2.5v-3c0-3.5,2-6.1,5.6-6.1c2.1,0,3.3,1,3.3,2.5C128.1,373.9,127.2,374.8,125.9,374.8z"/>
	<path fill="#0F73B7" d="M146.9,393.5l-0.4-1.4c-0.6,0.6-1.7,1.7-3.5,1.7c-3.7,0-5.1-4-5.1-7.3c0-4.9,2.8-7.4,5.2-7.4
		c1.9,0,3,1.4,3.4,2v-8c0-1.4-0.4-1.7-1.9-1.7v-0.8l5.4-0.3v20.4c0,1.9,0.8,1.9,1.7,1.9v0.8H146.9z M146.6,383.2
		c0-0.6-0.6-2.5-2.1-2.5c-2.4,0-2.5,4.1-2.5,5.8c0,2,0.3,5.7,2.5,5.7c0.8,0,1.7-0.5,2.2-1.8V383.2z"/>
	<path fill="#0F73B7" d="M163.1,393.8c-1.5,0-2.1-0.8-2.5-1.4c-1.6,1.4-3.1,1.4-3.6,1.4c-1.7,0-3.6-1.1-3.6-3.3c0-3.5,4.7-5,7.1-5.7
		v-2.7c0-1.5-1.1-2.2-2.1-2.2c-0.3,0-0.8,0.1-0.8,0.6c0,0.2,0.1,0.3,0.3,0.6c0.3,0.3,0.5,0.7,0.5,1.3c0,1.2-0.9,2-2.3,2
		c-1.4,0-2.1-0.9-2.1-2c0-2.2,2.8-3.3,5.4-3.3c2.9,0,4.7,1.1,4.7,4.1v7.2c0,0.6,0.1,1.1,0.6,1.1c0.7,0,0.8-1.1,0.9-1.4l0.8,0.3
		C166.1,391.2,165.7,393.8,163.1,393.8z M160.5,385.7c-1,0.5-3.1,1.6-3.1,4.1c0,1.4,0.7,2.4,1.8,2.4c0.5,0,1-0.3,1.4-0.7V385.7z"/>
	<path fill="#0F73B7" d="M167.2,393.5v-0.8c0.5,0,1.7,0,1.7-1.5v-9.4c0-0.8-0.6-1.5-1.4-1.5h-0.4v-0.8l5.3-0.3v12.1
		c0,1.4,1.3,1.5,1.9,1.5v0.8H167.2z M170.6,375c-1.3,0-2.4-1-2.4-2.4c0-1.4,1.1-2.4,2.4-2.4c1.2,0,2.4,1,2.4,2.4
		C173,374,171.9,375,170.6,375z"/>
	<path fill="#0F73B7" d="M181.8,393.8c-3.1,0-6.1-3-6.1-7.4c0-4.3,3-7.3,6.1-7.3c3.1,0,6.1,3,6.1,7.3
		C187.9,390.8,184.9,393.8,181.8,393.8z M181.8,380c-1.9,0-1.9,5.3-1.9,6.5c0,1.2,0,6.5,1.9,6.5c1.9,0,1.9-5.2,1.9-6.5
		C183.8,385.3,183.7,380,181.8,380z"/>
	<path fill="#0F73B7" d="M199.8,393.5v-9.8c0-1.4-0.8-2.6-2.2-2.6c-0.6,0-1.4,0.3-1.6,0.7c-1.1,1.4-1.4,1.7-1.4,2.6v6.8
		c0,1,0.6,1.5,1.4,1.5h0.4v0.8h-7v-0.8c0.4,0,1.7,0,1.7-1.5v-17.5c0-2.3-0.9-2.3-2-2.3v-0.8l5.5-0.3V382c0.7-0.9,2.3-2.9,4.8-2.9
		c2.4,0,3.9,1.9,3.9,4.2v7.9c0,1.5,1.2,1.5,1.8,1.5v0.8H199.8z"/>
</g>
<g enable-background="new    ">
	<path fill="#0F73B7" d="M276.2,442.6c0-77.5,28.3-115.3,72.4-115.3c43.8,0,72.4,38,72.4,115.3c0,77.8-28.6,116.8-72.4,116.8
		C304.4,559.3,276.2,520.4,276.2,442.6z M387.5,442.6c0-64.2-16.1-87.6-38.9-87.6c-22.8,0-38.9,23.4-38.9,87.6
		c0,64.8,16.1,89.1,38.9,89.1C371.3,531.7,387.5,507.3,387.5,442.6z"/>
	<path fill="#0F73B7" d="M448.6,535c66-58.4,100-101.9,100-138.7c0-24.3-13.1-41.1-38-41.1c-17.6,0-32.2,11.3-44.1,24.9l-19.8-19.5
		c19.2-20.7,38.9-33.5,68.1-33.5c41.1,0,67.5,26.8,67.5,67.2c0,43.2-34.4,87.9-81.8,133.2c11.6-1.2,25.5-2.1,36.5-2.1h56v29.8H448.6
		V535z"/>
</g>
</svg>
