<?xml version="1.0" encoding="utf-8"?>
<!-- Generator: Adobe Illustrator 18.1.1, SVG Export Plug-In . SVG Version: 6.00 Build 0)  -->
<svg version="1.1" id="レイヤー_1" xmlns="http://www.w3.org/2000/svg" xmlns:xlink="http://www.w3.org/1999/xlink" x="0px"
	 y="0px" viewBox="0 0 174.1 187.8" enable-background="new 0 0 174.1 187.8" xml:space="preserve">
<g>
	<g>
		<defs>
			<circle id="SVGID_1_" cx="87.1" cy="100.7" r="87.1"/>
		</defs>
		<use xlink:href="#SVGID_1_"  overflow="visible" fill="#0B71B4"/>
		<clipPath id="SVGID_2_">
			<use xlink:href="#SVGID_1_"  overflow="visible"/>
		</clipPath>
	</g>
</g>
<g>
	<g>
		<path fill="#0B71B4" d="M10.2,84.7h6.3l4.8,14.4c0.6,1.9,1.1,4,1.7,6h0.2c0.6-2,1.1-4,1.7-6l4.7-14.4h6.3v30.8h-5.2v-12.9
			c0-2.9,0.4-7.2,0.7-10.1h-0.2l-2.3,7.3l-4.4,13h-3.2l-4.4-13l-2.3-7.3h-0.2c0.3,2.9,0.7,7.2,0.7,10.1v12.9h-5.1V84.7z"/>
		<path fill="#0B71B4" d="M42.8,84.7h17.4v5.1H48.5V97h9.9v5.2h-9.9v8.3h12.1v5.2H42.8V84.7z"/>
		<path fill="#0B71B4" d="M66.3,84.7h6.3l4.8,14.4c0.6,1.9,1.1,4,1.7,6h0.2c0.6-2,1.1-4,1.7-6l4.7-14.4H92v30.8h-5.2v-12.9
			c0-2.9,0.4-7.2,0.7-10.1h-0.2l-2.3,7.3l-4.4,13h-3.2l-4.4-13l-2.3-7.3h-0.2c0.3,2.9,0.7,7.2,0.7,10.1v12.9h-5.1V84.7z"/>
		<path fill="#0B71B4" d="M98.9,84.7h9.4c5.8,0,10.2,1.8,10.2,7.6c0,2.8-1.5,5.8-3.9,6.7v0.2c3.1,0.8,5.3,3.1,5.3,7.3
			c0,6.2-4.7,9.1-11,9.1H98.9V84.7z M107.9,97.3c3.6,0,5.2-1.6,5.2-4c0-2.7-1.7-3.8-5.1-3.8h-3.4v7.8H107.9z M108.5,110.8
			c3.9,0,6-1.5,6-4.7c0-3-2.1-4.3-6-4.3h-3.9v9H108.5z"/>
		<path fill="#0B71B4" d="M125,84.7h17.4v5.1h-11.7V97h9.9v5.2h-9.9v8.3h12.1v5.2H125V84.7z"/>
		<path fill="#0B71B4" d="M163.9,115.6l-5.8-11.7h-3.9v11.7h-5.7V84.7h9.9c5.9,0,10.6,2.3,10.6,9.3c0,4.6-2.1,7.5-5.4,8.9l6.6,12.6
			H163.9z M154.1,99h3.7c3.6,0,5.6-1.7,5.6-5c0-3.3-2-4.5-5.6-4.5h-3.7V99z"/>
	</g>
	<g>
		<path fill="#FFFFFF" d="M10.2,84.7h6.3l4.8,14.4c0.6,1.9,1.1,4,1.7,6h0.2c0.6-2,1.1-4,1.7-6l4.7-14.4h6.3v30.8h-5.2v-12.9
			c0-2.9,0.4-7.2,0.7-10.1h-0.2l-2.3,7.3l-4.4,13h-3.2l-4.4-13l-2.3-7.3h-0.2c0.3,2.9,0.7,7.2,0.7,10.1v12.9h-5.1V84.7z"/>
		<path fill="#FFFFFF" d="M42.8,84.7h17.4v5.1H48.5V97h9.9v5.2h-9.9v8.3h12.1v5.2H42.8V84.7z"/>
		<path fill="#FFFFFF" d="M66.3,84.7h6.3l4.8,14.4c0.6,1.9,1.1,4,1.7,6h0.2c0.6-2,1.1-4,1.7-6l4.7-14.4H92v30.8h-5.2v-12.9
			c0-2.9,0.4-7.2,0.7-10.1h-0.2l-2.3,7.3l-4.4,13h-3.2l-4.4-13l-2.3-7.3h-0.2c0.3,2.9,0.7,7.2,0.7,10.1v12.9h-5.1V84.7z"/>
		<path fill="#FFFFFF" d="M98.9,84.7h9.4c5.8,0,10.2,1.8,10.2,7.6c0,2.8-1.5,5.8-3.9,6.7v0.2c3.1,0.8,5.3,3.1,5.3,7.3
			c0,6.2-4.7,9.1-11,9.1H98.9V84.7z M107.9,97.3c3.6,0,5.2-1.6,5.2-4c0-2.7-1.7-3.8-5.1-3.8h-3.4v7.8H107.9z M108.5,110.8
			c3.9,0,6-1.5,6-4.7c0-3-2.1-4.3-6-4.3h-3.9v9H108.5z"/>
		<path fill="#FFFFFF" d="M125,84.7h17.4v5.1h-11.7V97h9.9v5.2h-9.9v8.3h12.1v5.2H125V84.7z"/>
		<path fill="#FFFFFF" d="M163.9,115.6l-5.8-11.7h-3.9v11.7h-5.7V84.7h9.9c5.9,0,10.6,2.3,10.6,9.3c0,4.6-2.1,7.5-5.4,8.9l6.6,12.6
			H163.9z M154.1,99h3.7c3.6,0,5.6-1.7,5.6-5c0-3.3-2-4.5-5.6-4.5h-3.7V99z"/>
	</g>
</g>
<g>
	<g>
		
			<line fill="none" stroke="#FFFFFF" stroke-width="12" stroke-linecap="round" stroke-linejoin="round" x1="31.9" y1="12.5" x2="52.3" y2="36.4"/>
		
			<line fill="none" stroke="#FFFFFF" stroke-width="12" stroke-linecap="round" stroke-linejoin="round" x1="144.5" y1="12.5" x2="124" y2="36.4"/>
		
			<line fill="none" stroke="#FFFFFF" stroke-width="12" stroke-linecap="round" stroke-linejoin="round" x1="88.2" y1="5.7" x2="88.2" y2="36.4"/>
	</g>
	<g>
		
			<line fill="none" stroke="#231815" stroke-width="2" stroke-linecap="round" stroke-linejoin="round" x1="31.9" y1="12.5" x2="52.3" y2="36.4"/>
		
			<line fill="none" stroke="#231815" stroke-width="2" stroke-linecap="round" stroke-linejoin="round" x1="144.5" y1="12.5" x2="124" y2="36.4"/>
		
			<line fill="none" stroke="#231815" stroke-width="2" stroke-linecap="round" stroke-linejoin="round" x1="88.2" y1="5.7" x2="88.2" y2="36.4"/>
	</g>
	<g>
		<line fill="none" stroke="#0B71B4" stroke-width="4" stroke-miterlimit="10" x1="31.9" y1="12.5" x2="52.3" y2="36.4"/>
		<line fill="none" stroke="#0B71B4" stroke-width="4" stroke-miterlimit="10" x1="144.5" y1="12.5" x2="124" y2="36.4"/>
		<line fill="none" stroke="#0B71B4" stroke-width="4" stroke-miterlimit="10" x1="88.2" y1="5.7" x2="88.2" y2="36.4"/>
	</g>
</g>
</svg>
