<?xml version="1.0" encoding="utf-8"?>
<!-- Generator: Adobe Illustrator 18.1.1, SVG Export Plug-In . SVG Version: 6.00 Build 0)  -->
<svg version="1.1" id="レイヤー_1" xmlns="http://www.w3.org/2000/svg" xmlns:xlink="http://www.w3.org/1999/xlink" x="0px"
	 y="0px" viewBox="0 0 340.4 154.9" enable-background="new 0 0 340.4 154.9" xml:space="preserve">
<g>
	<path fill="#0B71B4" d="M0,75.5l8.9-11.7c5.6,5.6,12.9,9.4,19.7,9.4c8.1,0,12.4-3.8,12.4-9.7c0-6.3-4.7-8.2-11.6-11.4L19,47.2
		C11.1,43.7,3.2,36.8,3.2,24.5C3.2,10.6,14.4,0,30.1,0c9,0,18,3.9,24.3,10.9l-7.9,10.6c-4.9-4.5-10.1-7-16.5-7
		c-6.8,0-11.2,3.3-11.2,8.9c0,6.1,5.6,8.2,12.2,11.1l10.2,4.7c9.4,4.2,15.6,10.8,15.6,23c0,13.8-10.6,25.6-28.5,25.6
		C17.9,87.8,7.5,83.4,0,75.5z"/>
	<path fill="#0B71B4" d="M86,15.7H64.2V1.6h59.3v14.1h-22v70.6H86V15.7z"/>
	<path fill="#0B71B4" d="M132.2,43.6C132.2,16,146.4,0,166.9,0c20.6,0,34.7,16.1,34.7,43.6s-14.2,44.3-34.7,44.3
		C146.4,87.8,132.2,71,132.2,43.6z M185.8,43.6c0-18.2-7.3-29.1-18.9-29.1c-11.5,0-18.9,10.9-18.9,29.1c0,18.1,7.3,29.6,18.9,29.6
		C178.5,73.2,185.8,61.7,185.8,43.6z"/>
	<path fill="#0B71B4" d="M259.1,86.2l-15.9-32h-10.8v32h-15.5V1.6h27.1c16.3,0,29.2,6.2,29.2,25.6c0,12.7-5.9,20.6-14.8,24.4
		l18.1,34.7H259.1z M232.4,40.8h10.1c10,0,15.4-4.6,15.4-13.6c0-9.2-5.5-12.2-15.4-12.2h-10.1V40.8z"/>
	<path fill="#0B71B4" d="M301.4,55.2L278.2,1.6h16.5l7.8,20.6c2.2,6.3,4.3,12.2,6.7,18.8h0.4c2.4-6.5,4.7-12.5,6.9-18.8l7.8-20.6
		h16.1L317,55.2v31h-15.5V55.2z"/>
</g>
<g>
	<path fill="#0B71B4" d="M8,128.8c0-7.3,4.2-11.7,8.6-11.7c2.3,0,3.7,1,5.2,2.4l-0.2-3.5v-7.8h5.4v31.7h-4.3l-0.4-2.3H22
		c-1.5,1.6-3.5,2.9-5.6,2.9C11.3,140.4,8,136.1,8,128.8z M21.5,133.3v-9.8c-1.2-1.2-2.5-1.7-3.8-1.7c-2.3,0-4.2,2.4-4.2,6.8
		c0,4.6,1.5,6.9,4.2,6.9C19.2,135.6,20.4,135,21.5,133.3z"/>
	<path fill="#0B71B4" d="M31.6,133.8c0-4.8,3.5-7.3,11.7-8.2c-0.1-2.2-0.9-3.9-3.5-3.9c-1.9,0-3.7,0.9-5.6,2.1l-1.9-3.9
		c2.4-1.6,5.3-2.9,8.5-2.9c5.2,0,7.8,3.4,7.8,9.8v13h-4.4l-0.4-2.4h-0.1c-1.8,1.7-3.8,2.9-6.2,2.9C34.1,140.4,31.6,137.6,31.6,133.8
		z M43.4,133.7v-4.5c-5,0.7-6.6,2.2-6.6,4.2c0,1.8,1.1,2.5,2.7,2.5C41,135.9,42.1,135.1,43.4,133.7z"/>
	<path fill="#0B71B4" d="M53.7,110.9c0-1.9,1.3-3.2,3.2-3.2c1.8,0,3.2,1.3,3.2,3.2c0,1.8-1.3,3.2-3.2,3.2
		C55,114,53.7,112.7,53.7,110.9z M54.2,117.6h5.3v22.3h-5.3V117.6z"/>
	<path fill="#0B71B4" d="M64,128.8c0-7.4,4.7-11.7,9.8-11.7s9.8,4.3,9.8,11.7c0,7.4-4.7,11.7-9.8,11.7S64,136.2,64,128.8z
		 M78.2,128.8c0-4.2-1.6-7-4.3-7s-4.3,2.7-4.3,7c0,4.2,1.6,6.9,4.3,6.9S78.2,133,78.2,128.8z"/>
	<path fill="#0B71B4" d="M88.1,108.2h5.3v8l-0.2,4.2c1.6-1.7,3.6-3.3,6.4-3.3c4.4,0,6.3,3.3,6.3,8.9v13.9h-5.4v-13.2
		c0-3.4-0.9-4.7-2.9-4.7c-1.7,0-2.7,0.9-4.3,2.5v15.3h-5.3V108.2z"/>
	<path fill="#0B71B4" d="M110.3,126.4h9.9v4.2h-9.9V126.4z"/>
	<path fill="#0B71B4" d="M124.9,117.6h4.4l0.4,2.3h0.1c1.7-1.6,3.8-2.9,6-2.9c5,0,8,4.5,8,11.3c0,7.6-4.2,12-8.7,12
		c-1.8,0-3.5-0.9-5.1-2.4l0.1,3.7v6.8h-5.3V117.6z M138.3,128.5c0-4.3-1.2-6.6-4-6.6c-1.4,0-2.6,0.8-4,2.3v9.8
		c1.3,1.2,2.6,1.7,3.7,1.7C136.4,135.6,138.3,133.3,138.3,128.5z"/>
	<path fill="#0B71B4" d="M148.4,117.6h4.4l0.4,3.9h0.1c1.5-2.9,3.7-4.5,5.8-4.5c1.1,0,1.8,0.2,2.4,0.5l-0.9,5
		c-0.7-0.2-1.3-0.4-2.1-0.4c-1.6,0-3.5,1.2-4.7,4.4v13.3h-5.3V117.6z"/>
	<path fill="#0B71B4" d="M163,128.8c0-7.4,4.7-11.7,9.8-11.7c5.1,0,9.8,4.3,9.8,11.7c0,7.4-4.7,11.7-9.8,11.7
		C167.7,140.4,163,136.2,163,128.8z M177.1,128.8c0-4.2-1.6-7-4.3-7c-2.8,0-4.3,2.7-4.3,7c0,4.2,1.6,6.9,4.3,6.9
		C175.6,135.7,177.1,133,177.1,128.8z"/>
	<path fill="#0B71B4" d="M182.3,148.4l0.9-4.3c0.5,0.2,1.1,0.3,1.7,0.3c1.7,0,2.3-1.3,2.3-3.8v-23h5.4v22.8c0,4.8-1.7,8.5-6.8,8.5
		C184.1,149,183.1,148.7,182.3,148.4z M186.6,110.9c0-1.9,1.3-3.2,3.2-3.2c1.8,0,3.2,1.3,3.2,3.2c0,1.8-1.4,3.2-3.2,3.2
		C188,114,186.6,112.7,186.6,110.9z"/>
	<path fill="#0B71B4" d="M196.9,128.8c0-7.2,4.6-11.7,9.5-11.7c5.6,0,8.5,4.5,8.5,10.7c0,1.1-0.1,2.1-0.3,2.7h-12.6
		c0.4,3.7,2.6,5.6,5.6,5.6c1.7,0,3.1-0.6,4.6-1.6l1.8,3.6c-2,1.5-4.6,2.5-7.1,2.5C201.4,140.4,196.9,136.1,196.9,128.8z
		 M210.4,126.5c0-3-1.2-4.9-3.9-4.9c-2.1,0-4,1.7-4.4,4.9H210.4z"/>
	<path fill="#0B71B4" d="M218.1,128.8c0-7.4,4.9-11.7,10.4-11.7c2.5,0,4.4,1.1,5.9,2.5l-2.6,3.8c-1-1-2-1.5-3.1-1.5
		c-3.1,0-5.2,2.7-5.2,7c0,4.2,2.1,6.9,5.1,6.9c1.5,0,2.8-0.8,4-1.8l2.1,3.9c-1.9,1.9-4.4,2.7-6.7,2.7
		C222.4,140.4,218.1,136.2,218.1,128.8z"/>
	<path fill="#0B71B4" d="M239.4,132.1v-9.9h-2.9v-4.3l3.1-0.3l0.6-6h4.5v6h5v4.6h-5v9.9c0,2.5,0.9,3.7,2.8,3.7c0.7,0,1.5-0.2,2-0.5
		l0.9,4.3c-1.1,0.4-2.5,0.8-4.3,0.8C241.2,140.4,239.4,137.1,239.4,132.1z"/>
</g>
</svg>
