<?xml version="1.0" encoding="utf-8"?>
<!-- Generator: Adobe Illustrator 18.1.1, SVG Export Plug-In . SVG Version: 6.00 Build 0)  -->
<svg version="1.1" id="レイヤー_1" xmlns="http://www.w3.org/2000/svg" xmlns:xlink="http://www.w3.org/1999/xlink" x="0px"
	 y="0px" viewBox="0 0 651 51" enable-background="new 0 0 651 51" xml:space="preserve">
<g>
	<g>
		<path fill="#FFFFFF" d="M51.5,11.6c-0.4,1-0.8,2.3-1.1,3.4c-1.1,4.8-3.3,12.3-7.3,17.7c-4.4,5.8-10.9,10.6-19.5,13.4l-5.3-5.8
			c9.6-2.2,15.1-6.5,19.1-11.4c3.2-4,5.1-9.6,5.7-13.7H20.4c-2.2,0-4.5,0.1-5.8,0.2V8.6c1.5,0.1,4.2,0.4,5.8,0.4h22.5
			c1,0,2.5,0,3.8-0.4L51.5,11.6z"/>
		<path fill="#FFFFFF" d="M99.7,38.1c0,1.9,0.1,6.6,0.1,6.8H93l0-2.7H69.7l0,2.7H63c0-0.2,0.1-4.5,0.1-6.8V14.2c0-1.4,0-3.4-0.1-4.7
			c2,0,3.8,0.1,5.2,0.1h26.7c1.2,0,3.1,0,4.8-0.1c-0.1,1.5-0.1,3.3-0.1,4.7V38.1z M69.7,15.8V36h23.5V15.8H69.7z"/>
		<path fill="#FFFFFF" d="M129.8,33.1c8.3-4.9,14.6-12.3,17.7-18.9l3.8,6.9c-3.7,6.6-10.2,13.3-18,18c-4.9,3-11.2,5.7-18,6.9
			l-4.1-6.4C118.8,38.4,125.1,35.9,129.8,33.1z M129.8,17.3l-5,5.1c-2.5-2.7-8.6-8-12.2-10.5l4.6-4.9C120.7,9.3,127,14.4,129.8,17.3
			z"/>
		<path fill="#FFFFFF" d="M194.8,19.4c1,0,3.1-0.1,4.4-0.3v6.3c-1.2-0.1-3.1-0.1-4.4-0.1h-11.7c-0.3,5-1.4,9.1-3.1,12.5
			c-1.7,3.4-5.4,7.1-9.8,9.3l-5.7-4.1c3.5-1.3,6.9-4.1,8.8-7c2-3,2.8-6.7,3-10.7H163c-1.4,0-3.3,0.1-4.7,0.2v-6.4
			c1.5,0.1,3.2,0.3,4.7,0.3H194.8z M169.2,12.8c-1.7,0-3.7,0.1-5.2,0.2V6.7c1.6,0.2,3.5,0.3,5.2,0.3h19.5c1.7,0,3.6-0.1,5.3-0.3V13
			c-1.7-0.1-3.5-0.2-5.3-0.2H169.2z"/>
		<path fill="#FFFFFF" d="M242.3,18c-2.3,2.5-6.5,5.9-10.9,8.8V43c0,1.7,0,4.3,0.3,5.2h-7.2c0.1-1,0.2-3.5,0.2-5.2V30.5
			c-4.3,2-9.6,4.2-13.7,5.3l-3.3-5.6c6.3-1.3,13.3-4.3,17.2-6.6c5-2.9,10.1-7,12.5-10.1L242.3,18z"/>
		<path fill="#FFFFFF" d="M297.8,11.1c-0.5,0.6-1.5,1.8-1.9,2.5c-2.3,3.8-6.9,9.9-11.7,13.3l-5-4c3.9-2.4,7.7-6.7,8.9-9h-25.3
			c-2,0-3.6,0.1-5.9,0.3V7.4c1.8,0.3,3.9,0.5,5.9,0.5H289c1.4,0,4-0.1,4.9-0.4L297.8,11.1z M278,17.7c0,12.1-0.2,22-13.5,29.1
			l-5.6-4.6c1.6-0.5,3.3-1.4,5.1-2.7c6.2-4.3,7.3-9.4,7.3-17.4c0-1.5-0.1-2.8-0.3-4.4H278z"/>
		<path fill="#FFFFFF" d="M313.9,6.6c-0.4,1-1,3.4-1.2,4.3c-0.7,3.2-2.3,13.8-2.3,18.6c0,1,0,2.1,0.2,3.1c0.6-1.7,1.4-3.3,2.1-4.9
			l3,2.4c-1.4,3.9-2.9,8.8-3.5,11.5c-0.1,0.7-0.3,1.7-0.2,2.2c0,0.5,0,1.3,0,2l-5.4,0.4c-1-3.4-1.9-8.8-1.9-15.4
			c0-7.3,1.4-16.4,2-20.1c0.2-1.4,0.4-3.2,0.4-4.7L313.9,6.6z M343.5,42.9c-2-1.9-3.9-3.5-5.8-4.8c-0.3,4.6-2.9,7.9-9.4,7.9
			c-6.6,0-10.8-2.8-10.8-7.9c0-4.9,4.1-8.3,10.7-8.3c1.1,0,2.2,0,3.2,0.2c-0.1-3-0.3-6.5-0.3-9.9c-1.2,0-2.3,0-3.5,0
			c-2.8,0-5.5-0.1-8.4-0.3v-5.7c2.8,0.3,5.5,0.4,8.4,0.4c1.1,0,2.3,0,3.4,0c0-2.4,0-4.3-0.1-5.3c0-0.7-0.1-2.2-0.3-3.2h6.9
			c-0.1,0.9-0.2,2.1-0.3,3.1c0,1.1-0.1,2.9-0.1,5c2.6-0.3,5.2-0.6,7.4-1.1v6c-2.3,0.3-4.9,0.6-7.5,0.8c0.1,4.7,0.3,8.5,0.5,11.8
			c4,1.7,7,4.1,9.3,6.2L343.5,42.9z M331.5,35.1c-1.3-0.3-2.6-0.5-3.9-0.5c-2.7,0-4.6,1.1-4.6,2.9c0,1.9,1.9,2.8,4.5,2.8
			c3,0,4-1.6,4-4.4V35.1z"/>
		<path fill="#FFFFFF" d="M361,47.4c-3-3.6-7-7.8-10.5-10.7l5.1-4.4c3.5,2.8,8.1,7.6,10.6,10.6L361,47.4z"/>
		<path fill="#FFFFFF" d="M397.9,36.3c-6.1,1.8-12.6,3.7-17.6,5.2l-1.5-5.4c1.9-0.4,4.3-1.1,7-1.8v-9.8h-5.4v-5.3h5.4v-8.5h-5.8V5.4
			h17v5.3h-5.6v8.5h5.1v5.3h-5.1v8.3c1.9-0.5,3.9-1.1,5.8-1.6L397.9,36.3z M419.5,43c0.9,0,1.1-0.8,1.2-5.6c1.1,0.9,3.4,1.8,4.8,2.1
			c-0.5,6.7-1.8,8.5-5.3,8.5h-3.6c-4.5,0-5.4-1.7-5.4-6.6v-9.5h-3c-0.9,7.9-3.1,13.6-13.5,16.6c-0.6-1.4-2-3.6-3.2-4.8
			c8.8-2.2,10.4-6.2,11-11.9h-3.5V4.7h23.7v27.2h-6v9.5c0,1.4,0.1,1.6,0.9,1.6H419.5z M404.2,12.4h12.7v-3h-12.7V12.4z M404.2,19.8
			h12.7v-3h-12.7V19.8z M404.2,27.2h12.7v-3h-12.7V27.2z"/>
		<path fill="#FFFFFF" d="M456.5,27.2c-0.4,0.8-0.9,1.6-1.4,2.3h19.7c0,0,0,1.3-0.1,2c-0.7,9.5-1.5,13.4-2.8,14.8
			c-0.9,1.1-2,1.5-3.2,1.7c-1.1,0.1-3,0.2-4.9,0.1c-0.1-1.4-0.6-3.3-1.3-4.5c1.6,0.1,2.8,0.1,3.5,0.1c0.7,0,1.1-0.1,1.5-0.5
			c0.7-0.7,1.3-3.2,1.8-9.1h-1.9c-2,5.4-5.8,11.3-9.7,14.4c-1-1.1-2.6-2.4-4.1-3.2c3.7-2.3,7-6.7,9-11.2h-2.9
			c-2.6,4.7-7.1,9.5-11.4,12.2c-0.9-1.1-2.4-2.6-3.8-3.4c3.6-1.8,7.3-5.2,9.9-8.8h-2.9c-1.8,1.8-3.6,3.5-5.6,4.8
			c-0.7-0.9-2.6-2.6-3.8-3.4c-3.5,1.8-7,3.5-10,5l-2.1-5.8c1.7-0.6,3.7-1.5,6-2.4V18.4h-4.9V13h4.9V3.4h5.3V13h4.6v5.4h-4.6v11.5
			l3.9-1.7l1,4.1c1.8-1.5,3.3-3.3,4.5-5.2h-5.5v-4.9h30.6v4.9H456.5z M472.5,20.5h-23V4h23V20.5z M467.2,8h-12.5v2.3h12.5V8z
			 M467.2,14.2h-12.5v2.3h12.5V14.2z"/>
		<path fill="#FFFFFF" d="M491.8,6.9c-0.4,1-1,3.4-1.2,4.3c-0.7,3.2-2.3,12.8-2.3,17.6c0,0.9,0,2.1,0.2,3.1c0.7-1.7,1.5-3.3,2.1-4.9
			l3,2.3c-1.4,4-3,9.2-3.5,11.8c-0.1,0.7-0.3,1.8-0.3,2.2c0,0.5,0,1.3,0.1,2l-5.5,0.4c-1-3.4-1.9-9.2-1.9-15.8
			c0-7.2,1.5-15.4,2-19.1c0.2-1.4,0.5-3.2,0.5-4.7L491.8,6.9z M503.1,30.7c-0.4,1.6-0.6,2.7-0.6,4c0,2.1,1.8,3.4,6.7,3.4
			c4.3,0,7.9-0.4,12.1-1.3l0.1,6.5c-3.1,0.6-7,1-12.4,1c-8.3,0-12.3-3-12.3-7.9c0-2,0.3-4,0.8-6.3L503.1,30.7z M519.9,10.1v6.2
			c-5.9,0.5-14.6,0.5-20.7,0l0-6.2C505.2,10.9,514.7,10.7,519.9,10.1z"/>
		<path fill="#FFFFFF" d="M562.4,17.4c-0.2,0.5-0.6,1.6-0.9,2.5c5.6,1.8,9.3,6.2,9.3,11.8c0,6.8-4,13.4-15.8,15.2l-3.2-5.1
			c9.3-1,13.1-5.7,13.1-10.4c0-2.9-1.7-5.5-5-6.8c-2.7,6.6-6.5,11.6-10.2,14.6c0.3,1.3,0.7,2.4,1.1,3.6l-5.5,1.7
			c-0.2-0.6-0.4-1.3-0.6-1.9c-2.3,1.2-4.9,1.9-7.4,1.9c-3.5,0-6.5-2.1-6.5-7c0-6.1,5.1-12.6,11.8-15.8c0.1-2,0.3-4.1,0.5-6h-1.6
			c-2.5,0-6.3-0.2-8.5-0.3l-0.2-5.6c1.7,0.2,5.9,0.6,8.9,0.6h1.8l0.3-2.6c0.1-0.9,0.2-2,0.1-2.9l6.3,0.1c-0.3,1-0.5,1.8-0.7,2.6
			c-0.2,0.8-0.3,1.7-0.5,2.6c5.8-0.2,11-0.8,16.3-2l0,5.5c-4.7,0.9-11.2,1.5-17.1,1.8c-0.1,1.4-0.3,2.9-0.3,4.3
			c2.3-0.5,4.8-0.9,7.2-0.9h0.8c0.2-1,0.4-2.2,0.4-2.9L562.4,17.4z M543.4,37c-0.5-3-0.9-6.3-1-9.6c-3.6,2.4-6,6.1-6,8.8
			c0,1.5,0.7,2.3,2.2,2.3C540,38.6,541.6,38,543.4,37z M547.8,24.9c0,3,0.2,5.6,0.5,8c2.3-2.3,4.5-5.3,6.1-9.1
			C551.9,23.8,549.6,24.3,547.8,24.9L547.8,24.9z"/>
		<path fill="#FFFFFF" d="M612.3,10.7c-1.2,0.7-2.3,1.5-3.4,2.2c-2.6,1.8-7.6,6.1-10.6,8.5c1.6-0.4,3-0.5,4.5-0.5
			c8.2,0,14.4,5.1,14.4,12.1c0,7.6-5.8,13.6-17.4,13.6c-6.7,0-11.8-3.1-11.8-7.9c0-3.9,3.5-7.5,8.7-7.5c5.9,0,9.5,3.6,10.3,8.2
			c2.6-1.4,3.9-3.6,3.9-6.6c0-4.3-4.4-7.2-10-7.2c-7.4,0-12.2,3.9-17.4,9.8l-4.4-4.5c3.4-2.8,9.2-7.7,12.1-10
			c2.7-2.2,7.7-6.3,10.1-8.4c-2.5,0-9.1,0.3-11.6,0.5c-1.3,0-2.8,0.2-3.9,0.4l-0.2-6.3c1.4,0.1,3,0.2,4.4,0.2
			c2.5,0,12.8-0.2,15.6-0.5c2-0.1,3.1-0.3,3.7-0.5L612.3,10.7z M601.4,40.9c-0.3-3.1-2.1-5.2-4.7-5.2c-1.8,0-3,1.1-3,2.3
			c0,1.8,2,3,4.9,3C599.6,41.1,600.5,41,601.4,40.9z"/>
		<path fill="#FFFFFF" d="M640.5,39.8c0,4.3-3.5,7.9-7.9,7.9c-4.3,0-7.8-3.5-7.8-7.9c0-4.3,3.5-7.9,7.8-7.9
			C637,31.9,640.5,35.5,640.5,39.8z M637,39.8c0-2.4-1.9-4.4-4.4-4.4c-2.3,0-4.3,1.9-4.3,4.4c0,2.4,2,4.3,4.3,4.3
			C635.1,44.1,637,42.2,637,39.8z"/>
	</g>
</g>
</svg>
