<?xml version="1.0" encoding="utf-8"?>
<!-- Generator: Adobe Illustrator 18.1.1, SVG Export Plug-In . SVG Version: 6.00 Build 0)  -->
<svg version="1.1" id="レイヤー_1" xmlns="http://www.w3.org/2000/svg" xmlns:xlink="http://www.w3.org/1999/xlink" x="0px"
	 y="0px" viewBox="0 0 1200 10" enable-background="new 0 0 1200 10" xml:space="preserve">
<g>
	<g>
		<polyline fill="#FFFFFF" points="0,0 8.3,10 16.7,0 25,10 33.3,0 41.7,10 50,0 58.3,10 66.7,0 75,10 83.3,0 91.7,10 100,0 
			108.3,10 116.7,0 125,10 133.3,0 141.7,10 150,0 158.3,10 166.7,0 175,10 183.3,0 191.7,10 200,0 208.3,10 216.7,0 225,10 
			233.3,0 241.7,10 250,0 258.3,10 266.7,0 275,10 283.3,0 291.7,10 300,0 		"/>
		<polyline fill="#FFFFFF" points="300,0 308.3,10 316.7,0 325,10 333.3,0 341.7,10 350,0 358.3,10 366.7,0 375,10 383.3,0 
			391.7,10 400,0 408.3,10 416.7,0 425,10 433.3,0 441.7,10 450,0 458.3,10 466.7,0 475,10 483.3,0 491.7,10 500,0 508.3,10 
			516.7,0 525,10 533.3,0 541.7,10 550,0 558.3,10 566.7,0 575,10 583.3,0 591.7,10 600,0 		"/>
	</g>
	<g>
		<polyline fill="#FFFFFF" points="600,0 608.3,10 616.7,0 625,10 633.3,0 641.7,10 650,0 658.3,10 666.7,0 675,10 683.3,0 
			691.7,10 700,0 708.3,10 716.7,0 725,10 733.3,0 741.7,10 750,0 758.3,10 766.7,0 775,10 783.3,0 791.7,10 800,0 808.3,10 
			816.7,0 825,10 833.3,0 841.7,10 850,0 858.3,10 866.7,0 875,10 883.3,0 891.7,10 900,0 		"/>
		<polyline fill="#FFFFFF" points="900,0 908.3,10 916.7,0 925,10 933.3,0 941.7,10 950,0 958.3,10 966.7,0 975,10 983.3,0 
			991.7,10 1000,0 1008.3,10 1016.7,0 1025,10 1033.3,0 1041.7,10 1050,0 1058.3,10 1066.7,0 1075,10 1083.3,0 1091.7,10 1100,0 
			1108.3,10 1116.7,0 1125,10 1133.3,0 1141.7,10 1150,0 1158.3,10 1166.7,0 1175,10 1183.3,0 1191.7,10 1200,0 		"/>
	</g>
</g>
</svg>
