<?xml version="1.0" encoding="utf-8"?>
<!-- Generator: Adobe Illustrator 18.1.1, SVG Export Plug-In . SVG Version: 6.00 Build 0)  -->
<svg version="1.1" id="レイヤー_1" xmlns="http://www.w3.org/2000/svg" xmlns:xlink="http://www.w3.org/1999/xlink" x="0px"
	 y="0px" viewBox="0 0 144.7 158.7" enable-background="new 0 0 144.7 158.7" xml:space="preserve">
<g>
	<g>
		<circle fill="#B4B3B4" stroke="#FFFFFF" stroke-width="4.2605" stroke-miterlimit="10" cx="76.2" cy="92.2" r="62.9"/>
		<text transform="matrix(1 0 0 1 30.362 94.0273)"><tspan x="0" y="0" fill="#231815" font-family="'NotoSansCJKjp-Bold-83pv-RKSJ-H'" font-size="21.9258">本社ビル</tspan><tspan x="11" y="26.3" fill="#231815" font-family="'NotoSansCJKjp-Bold-83pv-RKSJ-H'" font-size="21.9258">建設中</tspan></text>
	</g>
	<g>
		<path fill="#40AAD3" d="M6.8,37.4c0,8,6.6,14.6,14.6,14.6h95c8,0,14.6-6.6,14.6-14.6V17c0-8-6.6-14.6-14.6-14.6h-95
			c-8,0-14.6,6.6-14.6,14.6V37.4z"/>
		<path fill="none" stroke="#FFFFFF" stroke-width="2.9234" stroke-miterlimit="10" d="M6.8,37.4c0,8,6.6,14.6,14.6,14.6h95
			c8,0,14.6-6.6,14.6-14.6V17c0-8-6.6-14.6-14.6-14.6h-95c-8,0-14.6,6.6-14.6,14.6V37.4z"/>
	</g>
	<text transform="matrix(1 0 0 1 21.7336 25.3252)"><tspan x="0" y="0" fill="#FFFFFF" font-family="'NotoSansCJKjp-Bold-83pv-RKSJ-H'" font-size="19.0024">Web</tspan><tspan x="40.7" y="0" fill="#FFFFFF" font-family="'NotoSansCJKjp-Bold-83pv-RKSJ-H'" font-size="19.0024" letter-spacing="-1">カ</tspan><tspan x="57.8" y="0" fill="#FFFFFF" font-family="'NotoSansCJKjp-Bold-83pv-RKSJ-H'" font-size="19.0024" letter-spacing="-1">メ</tspan><tspan x="75.3" y="0" fill="#FFFFFF" font-family="'NotoSansCJKjp-Bold-83pv-RKSJ-H'" font-size="19.0024">ラ</tspan><tspan x="0" y="19" fill="#FFFFFF" font-family="'NotoSansCJKjp-Bold-83pv-RKSJ-H'" font-size="19.0024">でみる</tspan></text>
	<g>
		<path fill="#FFFFFF" d="M113.5,60.8c0,4.9-3.9,3.3-8.8,3.3c-4.9,0-8.8,1.5-8.8-3.3s3.9-8.8,8.8-8.8C109.6,52,113.5,56,113.5,60.8z
			"/>
		<circle fill="#FFFFFF" cx="104.7" cy="43.4" r="14.6"/>
		<circle fill="#C7C8C8" cx="104.7" cy="43.4" r="11.7"/>
		<circle fill="#40AAD3" cx="104.7" cy="43.4" r="8.4"/>
		<g>
			
				<path fill="none" stroke="#FFFFFF" stroke-width="1.8272" stroke-linecap="round" stroke-linejoin="round" stroke-miterlimit="10" d="
				M110.3,46.7c-0.4,0.6-0.9,1.2-1.5,1.7"/>
			
				<path fill="none" stroke="#FFFFFF" stroke-width="1.8272" stroke-linecap="round" stroke-linejoin="round" stroke-miterlimit="10" d="
				M106.2,36.8c0.9,0.2,1.8,0.6,2.5,1.2c0.4,0.3,0.7,0.6,1,1c0.5,0.6,0.8,1.3,1.1,1.9c0.3,0.8,0.4,1.7,0.4,2.5"/>
		</g>
		<path fill="#C7C8C8" d="M111.5,60.2c0,3.7-3,2.6-6.8,2.6S98,64,98,60.2c0-3.7,3-6.8,6.8-6.8S111.5,56.5,111.5,60.2z"/>
	</g>
</g>
</svg>
